:SAMPLES-PER-SECOND 30
:FULLY-SPECIFIED
:DEGREES
510
root  -29.0447 38.0972 -23.5307 -25.3407 -81.527 21.5521
RightUpLeg  -17.8468 -16.9335 -16.2785
RightLeg  -0.670186 -18.1706 6.17709
RightFoot  14.3296 -2.55273 11.6647
RightToes  0.000482159 0.542163 -0.142577
Spine  40.1733 -3.78359 5.3665
Spine1  11.89 -0.674651 -4.37771
HEad  9.39921 50.6983 -21.2976
LeftShoulder1  9.81987 -15.0692 -46.1148
LeftArm  -8.38407 16.0724 -15.0183
LeftForeArm  13.6976 -19.097 -4.24671
LeftHand  -0.25398 0.0180481 5.50724
RightShoulder  6.15827 10.904 36.7395
RightArm  25.0565 -26.5411 28.9649
RightForeArm  -18.2855 23.3972 5.9295
RightHand  -0.987345 1.0017 -18.0032
LeftUpLeg  -4.70349 9.27162 3.67357
LeftLeg  37.5594 -0.608835 -0.126709
LeftFoot  -24.3636 -0.620426 -6.71882
LeftToes  1.06248e-005 4.65854e-005 -8.185e-006
511
root  -27.9761 38.0361 -22.7643 -25.7975 -80.6511 21.2069
RightUpLeg  -14.4795 -17.1329 -18.2573
RightLeg  -6.18286 -21.8582 7.66025
RightFoot  8.31499 -2.64937 15.4623
RightToes  0.000482159 0.542163 -0.142577
Spine  38.6638 -3.51776 3.33594
Spine1  12.6645 -1.35001 -4.00336
HEad  9.68475 53.1472 -20.8293
LeftShoulder1  9.63729 -14.8926 -45.6778
LeftArm  -7.73312 14.1061 -14.5718
LeftForeArm  12.7786 -17.0675 -4.6714
LeftHand  -0.25398 0.0180481 5.50724
RightShoulder  6.05305 10.7049 36.6023
RightArm  21.2958 -29.2478 30.3256
RightForeArm  -16.6334 23.5721 5.86273
RightHand  -0.702376 -0.302029 -15.9672
LeftUpLeg  -5.8354 9.97411 1.3799
LeftLeg  37.9209 0.498934 0.803576
LeftFoot  -24.8492 -0.239969 -3.25166
LeftToes  1.06248e-005 4.65854e-005 -8.185e-006
512
root  -26.8903 38.0367 -22.0561 -23.324 -79.9639 18.0127
RightUpLeg  -12.2179 -17.345 -19.4742
RightLeg  -9.06156 -26.3588 9.20178
RightFoot  4.08464 -2.06747 15.3462
RightToes  0.000482159 0.542163 -0.142577
Spine  37.5506 -3.40896 1.96073
Spine1  13.0141 -1.77702 -3.90384
HEad  9.22699 54.9256 -20.9062
LeftShoulder1  9.47669 -14.7376 -45.2834
LeftArm  -7.05976 12.3828 -14.2433
LeftForeArm  12.1811 -16.392 -4.97046
LeftHand  -0.25398 0.0180481 5.50724
RightShoulder  5.91214 10.4245 36.4536
RightArm  16.2196 -30.8901 31.9949
RightForeArm  -12.966 23.6194 5.69439
RightHand  -0.493829 -1.25933 -13.7033
LeftUpLeg  -7.51407 9.8789 -0.212003
LeftLeg  39.0281 1.05708 1.30732
LeftFoot  -23.689 0.0221352 -1.11478
LeftToes  1.06248e-005 4.65854e-005 -8.185e-006
513
root  -25.7864 38.2334 -21.3274 -18.9781 -80.8385 13.086
RightUpLeg  -12.2322 -17.5069 -19.1378
RightLeg  -5.78209 -27.4225 8.58553
RightFoot  3.36351 -1.64807 12.9255
RightToes  0.000482159 0.542163 -0.142577
Spine  36.8668 -3.34804 2.21328
Spine1  13.1857 -1.35227 -4.7925
HEad  8.80263 56.4073 -21.2537
LeftShoulder1  9.23821 -14.5117 -44.6726
LeftArm  -6.38866 11.6839 -14.5046
LeftForeArm  11.3627 -17.4117 -4.87005
LeftHand  -0.25398 0.0180481 5.50724
RightShoulder  5.85681 10.2778 36.5025
RightArm  11.209 -31.4556 33.5701
RightForeArm  -9.14952 23.6758 5.51931
RightHand  -0.378445 -1.89413 -12.2809
LeftUpLeg  -8.43179 10.8974 -0.694273
LeftLeg  38.5692 1.06271 1.29816
LeftFoot  -21.9056 0.147425 0.174841
LeftToes  1.06248e-005 4.65854e-005 -8.185e-006
514
root  -24.7271 38.573 -20.6097 -14.7036 -82.7668 8.62117
RightUpLeg  -14.7878 -20.0298 -16.9226
RightLeg  4.21114 -20.4249 4.54953
RightFoot  3.62697 -1.54145 11.8853
RightToes  0.000482159 0.542163 -0.142577
Spine  36.0518 -3.17152 2.99037
Spine1  13.2084 -0.375608 -6.48361
HEad  8.98271 57.8965 -21.5995
LeftShoulder1  8.99582 -14.2506 -44.1155
LeftArm  -6.13487 11.9783 -15.2355
LeftForeArm  9.7289 -19.073 -4.62896
LeftHand  -0.25398 0.0180481 5.50724
RightShoulder  5.92902 10.4115 36.61
RightArm  8.006 -30.7447 34.7086
RightForeArm  -7.33132 23.7573 5.4457
RightHand  -0.379988 -1.94008 -12.4415
LeftUpLeg  -8.77747 13.2865 -1.01844
LeftLeg  36.2935 1.04915 1.20625
LeftFoot  -19.8492 0.269675 2.04299
LeftToes  1.06248e-005 4.65854e-005 -8.185e-006
515
root  -23.7414 38.9641 -19.9612 -10.2614 -84.4377 4.19385
RightUpLeg  -17.7419 -28.4089 -12.2131
RightLeg  14.8197 -5.40021 -0.156885
RightFoot  2.81928 -1.45354 11.8132
RightToes  0.000482159 0.542163 -0.142577
Spine  35.1317 -2.98702 3.37889
Spine1  12.9549 0.439108 -8.13011
HEad  10.0511 59.2333 -21.4794
LeftShoulder1  8.8597 -14.0232 -44.0066
LeftArm  -6.32232 12.813 -16.0229
LeftForeArm  7.53024 -20.39 -4.54504
LeftHand  -0.25398 0.0180481 5.50724
RightShoulder  6.05246 10.7075 36.5912
RightArm  7.14942 -28.852 35.2084
RightForeArm  -6.84569 23.9493 5.46338
RightHand  -0.403957 -1.8194 -12.8291
LeftUpLeg  -8.83498 15.795 -1.61452
LeftLeg  33.0569 0.988759 1.06204
LeftFoot  -17.1838 0.316373 4.18211
LeftToes  1.06248e-005 4.65854e-005 -8.185e-006
516
root  -22.7728 39.449 -19.3355 -0.0773315 -85.6014 -6.0452
RightUpLeg  -17.2665 -26.8525 -10.87
RightLeg  22.7706 -4.20493 -2.4473
RightFoot  1.52511 -1.20178 10.7195
RightToes  0.000482159 0.542163 -0.142577
Spine  34.4222 -2.98777 4.16011
Spine1  12.4533 0.980294 -9.30381
HEad  12.0788 60.0914 -20.3949
LeftShoulder1  8.81525 -13.8481 -44.2386
LeftArm  -6.4373 13.9731 -16.8045
LeftForeArm  6.18226 -21.1585 -4.5573
LeftHand  -0.25398 0.0180481 5.50724
RightShoulder  6.12928 10.9491 36.4148
RightArm  7.38824 -26.414 35.1632
RightForeArm  -5.86637 24.5617 5.55297
RightHand  -0.355433 -2.15945 -12.3693
LeftUpLeg  -8.1653 17.9195 -1.91382
LeftLeg  28.5412 0.45429 0.662035
LeftFoot  -13.7251 0.202971 5.73103
LeftToes  1.06248e-005 4.65854e-005 -8.185e-006
517
root  -21.8466 39.9442 -18.7104 19.464 -86.7577 -25.3134
RightUpLeg  -15.7302 -23.316 -10.3107
RightLeg  29.8483 -7.89725 -5.10289
RightFoot  0.601364 -0.945644 9.06144
RightToes  0.000482159 0.542163 -0.142577
Spine  33.1585 -2.86119 5.19171
Spine1  11.9199 1.66389 -10.4127
HEad  14.5351 60.4336 -18.582
LeftShoulder1  8.7942 -13.7158 -44.4833
LeftArm  -6.17747 15.5543 -17.7283
LeftForeArm  6.81693 -21.5997 -4.51959
LeftHand  -0.25398 0.0180481 5.50724
RightShoulder  6.1335 11.0548 36.1424
RightArm  7.0898 -24.1091 34.8011
RightForeArm  -4.66888 25.9458 5.80995
RightHand  -0.326741 -2.45638 -12.4234
LeftUpLeg  -7.04829 20.4205 -2.23518
LeftLeg  22.685 -0.756169 -0.0279177
LeftFoot  -10.0271 -0.0208985 7.00601
LeftToes  1.06248e-005 4.65854e-005 -8.185e-006
